<svg width="331" height="283" viewBox="0 0 331 283" fill="none" xmlns="http://www.w3.org/2000/svg">
<path d="M51.8594 0H52.4894V282.02L51.8594 282.07V0Z" fill="#BCBCBC"/>
<path d="M49.7891 0H50.4191V282.02L49.7891 282.07V0Z" fill="#BCBCBC"/>
<path d="M47.7188 0H48.3487V282.02L47.7188 282.07V0Z" fill="#BCBCBC"/>
<path d="M45.6406 0H46.2706V282.02L45.6406 282.07V0Z" fill="#BCBCBC"/>
<path d="M43.5703 0H44.2003V282.02L43.5703 282.07V0Z" fill="#BCBCBC"/>
<path d="M41.4883 0H42.1183V282.02L41.4883 282.07V0Z" fill="#BCBCBC"/>
<path d="M39.4219 0H40.0519V282.02L39.4219 282.07V0Z" fill="#BCBCBC"/>
<path d="M37.3398 0H37.9698V282.02L37.3398 282.07V0Z" fill="#BCBCBC"/>
<path d="M35.2695 0H35.8995V282.02L35.2695 282.07V0Z" fill="#BCBCBC"/>
<path d="M33.1914 0H33.8214V282.02L33.1914 282.07V0Z" fill="#BCBCBC"/>
<path d="M31.1211 0H31.7511V282.02L31.1211 282.07V0Z" fill="#BCBCBC"/>
<path d="M29.0391 0H29.6691V282.02L29.0391 282.07V0Z" fill="#BCBCBC"/>
<path d="M26.9688 0H27.5988V282.02L26.9688 282.07V0Z" fill="#BCBCBC"/>
<path d="M24.8984 0H25.5284V282.02L24.8984 282.07V0Z" fill="#BCBCBC"/>
<path d="M22.8203 0H23.4503V282.02L22.8203 282.07V0Z" fill="#BCBCBC"/>
<path d="M20.75 0H21.38V282.02L20.75 282.07V0Z" fill="#BCBCBC"/>
<path d="M18.6719 0H19.3019V282.02L18.6719 282.07V0Z" fill="#BCBCBC"/>
<path d="M16.6016 0H17.2316V282.02L16.6016 282.07V0Z" fill="#BCBCBC"/>
<path d="M14.5195 0H15.1495V282.02L14.5195 282.07V0Z" fill="#BCBCBC"/>
<path d="M12.4492 0H13.0792V282.02L12.4492 282.07V0Z" fill="#BCBCBC"/>
<path d="M10.3711 0H11.0011V282.02L10.3711 282.07V0Z" fill="#BCBCBC"/>
<path d="M8.30078 0H8.93078V282.02L8.30078 282.07V0Z" fill="#BCBCBC"/>
<path d="M6.21875 0H6.84875V282.02L6.21875 282.07V0Z" fill="#BCBCBC"/>
<path d="M4.14844 0H4.77844V282.02L4.14844 282.07V0Z" fill="#BCBCBC"/>
<path d="M2.07031 0H2.70031V282.02L2.07031 282.07V0Z" fill="#BCBCBC"/>
<path d="M0 0H0.63V282.02L0 282.07V0Z" fill="#BCBCBC"/>
<path d="M118.25 0H118.88V282.02L118.25 282.07V0Z" fill="#BCBCBC"/>
<path d="M116.18 0H116.81V282.02L116.18 282.07V0Z" fill="#BCBCBC"/>
<path d="M114.102 0H114.732V282.02L114.102 282.07V0Z" fill="#BCBCBC"/>
<path d="M112.031 0H112.661V282.02L112.031 282.07V0Z" fill="#BCBCBC"/>
<path d="M109.949 0H110.579V282.02L109.949 282.07V0Z" fill="#BCBCBC"/>
<path d="M107.879 0H108.509V282.02L107.879 282.07V0Z" fill="#BCBCBC"/>
<path d="M105.801 0H106.431V282.02L105.801 282.07V0Z" fill="#BCBCBC"/>
<path d="M103.73 0H104.36V282.02L103.73 282.07V0Z" fill="#BCBCBC"/>
<path d="M101.648 0H102.278V282.02L101.648 282.07V0Z" fill="#BCBCBC"/>
<path d="M99.5781 0H100.208V282.02L99.5781 282.07V0Z" fill="#BCBCBC"/>
<path d="M97.5117 0H98.1417V282.02L97.5117 282.07V0Z" fill="#BCBCBC"/>
<path d="M95.4297 0H96.0597V282.02L95.4297 282.07V0Z" fill="#BCBCBC"/>
<path d="M93.3594 0H93.9894V282.02L93.3594 282.07V0Z" fill="#BCBCBC"/>
<path d="M91.2812 0H91.9113V282.02L91.2812 282.07V0Z" fill="#BCBCBC"/>
<path d="M89.2109 0H89.8409V282.02L89.2109 282.07V0Z" fill="#BCBCBC"/>
<path d="M87.1289 0H87.7589V282.02L87.1289 282.07V0Z" fill="#BCBCBC"/>
<path d="M85.0586 0H85.6886V282.02L85.0586 282.07V0Z" fill="#BCBCBC"/>
<path d="M82.9805 0H83.6105V282.02L82.9805 282.07V0Z" fill="#BCBCBC"/>
<path d="M80.9102 0H81.5402V282.02L80.9102 282.07V0Z" fill="#BCBCBC"/>
<path d="M78.8281 0H79.4581V282.02L78.8281 282.07V0Z" fill="#BCBCBC"/>
<path d="M76.7617 0H77.3917V282.02L76.7617 282.07V0Z" fill="#BCBCBC"/>
<path d="M74.6914 0H75.3214V282.02L74.6914 282.07V0Z" fill="#BCBCBC"/>
<path d="M72.6094 0H73.2394V282.02L72.6094 282.07V0Z" fill="#BCBCBC"/>
<path d="M70.5391 0H71.1691V282.02L70.5391 282.07V0Z" fill="#BCBCBC"/>
<path d="M68.4609 0H69.0909V282.02L68.4609 282.07V0Z" fill="#BCBCBC"/>
<path d="M66.3906 0H67.0206V282.02L66.3906 282.07V0Z" fill="#BCBCBC"/>
<path d="M64.3086 0H64.9386V282.02L64.3086 282.07V0Z" fill="#BCBCBC"/>
<path d="M62.2383 0H62.8683V282.02L62.2383 282.07V0Z" fill="#BCBCBC"/>
<path d="M60.1602 0H60.7902V282.02L60.1602 282.07V0Z" fill="#BCBCBC"/>
<path d="M58.0898 0H58.7198V282.02L58.0898 282.07V0Z" fill="#BCBCBC"/>
<path d="M56.0117 0H56.6417V282.02L56.0117 282.07V0Z" fill="#BCBCBC"/>
<path d="M53.9414 0H54.5714V282.02L53.9414 282.07V0Z" fill="#BCBCBC"/>
<path d="M184.641 0H185.271V282.02L184.641 282.07V0Z" fill="#BCBCBC"/>
<path d="M182.559 0H183.189V282.02L182.559 282.07V0Z" fill="#BCBCBC"/>
<path d="M180.488 0H181.118V282.02L180.488 282.07V0Z" fill="#BCBCBC"/>
<path d="M178.41 0H179.04V282.02L178.41 282.07V0Z" fill="#BCBCBC"/>
<path d="M176.34 0H176.97V282.02L176.34 282.07V0Z" fill="#BCBCBC"/>
<path d="M174.27 0H174.9V282.02L174.27 282.07V0Z" fill="#BCBCBC"/>
<path d="M172.191 0H172.821V282.02L172.191 282.07V0Z" fill="#BCBCBC"/>
<path d="M170.121 0H170.751V282.02L170.121 282.07V0Z" fill="#BCBCBC"/>
<path d="M168.039 0H168.669V282.02L168.039 282.07V0Z" fill="#BCBCBC"/>
<path d="M165.969 0H166.599V282.02L165.969 282.07V0Z" fill="#BCBCBC"/>
<path d="M163.891 0H164.521V282.02L163.891 282.07V0Z" fill="#BCBCBC"/>
<path d="M161.82 0H162.45V282.02L161.82 282.07V0Z" fill="#BCBCBC"/>
<path d="M159.738 0H160.368V282.02L159.738 282.07V0Z" fill="#BCBCBC"/>
<path d="M157.672 0H158.302V282.02L157.672 282.07V0Z" fill="#BCBCBC"/>
<path d="M155.59 0H156.22V282.02L155.59 282.07V0Z" fill="#BCBCBC"/>
<path d="M153.52 0H154.15V282.02L153.52 282.07V0Z" fill="#BCBCBC"/>
<path d="M151.441 0H152.071V282.02L151.441 282.07V0Z" fill="#BCBCBC"/>
<path d="M149.371 0H150.001V282.02L149.371 282.07V0Z" fill="#BCBCBC"/>
<path d="M147.301 0H147.931V282.02L147.301 282.07V0Z" fill="#BCBCBC"/>
<path d="M145.219 0H145.849V282.02L145.219 282.07V0Z" fill="#BCBCBC"/>
<path d="M143.148 0H143.778V282.02L143.148 282.07V0Z" fill="#BCBCBC"/>
<path d="M141.07 0H141.7V282.02L141.07 282.07V0Z" fill="#BCBCBC"/>
<path d="M139 0H139.63V282.02L139 282.07V0Z" fill="#BCBCBC"/>
<path d="M136.922 0H137.552V282.02L136.922 282.07V0Z" fill="#BCBCBC"/>
<path d="M134.852 0H135.482V282.02L134.852 282.07V0Z" fill="#BCBCBC"/>
<path d="M132.77 0H133.4V282.02L132.77 282.07V0Z" fill="#BCBCBC"/>
<path d="M130.699 0H131.329V282.02L130.699 282.07V0Z" fill="#BCBCBC"/>
<path d="M128.621 0H129.251V282.02L128.621 282.07V0Z" fill="#BCBCBC"/>
<path d="M126.551 0H127.181V282.02L126.551 282.07V0Z" fill="#BCBCBC"/>
<path d="M124.48 0H125.11V282.02L124.48 282.07V0Z" fill="#BCBCBC"/>
<path d="M122.398 0H123.028V282.02L122.398 282.07V0Z" fill="#BCBCBC"/>
<path d="M120.328 0H120.958V282.02L120.328 282.07V0Z" fill="#BCBCBC"/>
<path d="M251.031 0H251.661V282.02L251.031 282.07V0Z" fill="#BCBCBC"/>
<path d="M248.949 0H249.579V282.02L248.949 282.07V0Z" fill="#BCBCBC"/>
<path d="M246.879 0H247.509V282.02L246.879 282.07V0Z" fill="#BCBCBC"/>
<path d="M244.801 0H245.431V282.02L244.801 282.07V0Z" fill="#BCBCBC"/>
<path d="M242.73 0H243.36V282.02L242.73 282.07V0Z" fill="#BCBCBC"/>
<path d="M240.648 0H241.278V282.02L240.648 282.07V0Z" fill="#BCBCBC"/>
<path d="M238.578 0H239.208V282.02L238.578 282.07V0Z" fill="#BCBCBC"/>
<path d="M236.5 0H237.13V282.02L236.5 282.07V0Z" fill="#BCBCBC"/>
<path d="M234.43 0H235.06V282.02L234.43 282.07V0Z" fill="#BCBCBC"/>
<path d="M232.352 0H232.982V282.02L232.352 282.07V0Z" fill="#BCBCBC"/>
<path d="M230.281 0H230.911V282.02L230.281 282.07V0Z" fill="#BCBCBC"/>
<path d="M228.199 0H228.829V282.02L228.199 282.07V0Z" fill="#BCBCBC"/>
<path d="M226.129 0H226.759V282.02L226.129 282.07V0Z" fill="#BCBCBC"/>
<path d="M224.059 0H224.689V282.02L224.059 282.07V0Z" fill="#BCBCBC"/>
<path d="M221.98 0H222.61V282.02L221.98 282.07V0Z" fill="#BCBCBC"/>
<path d="M219.91 0H220.54V282.02L219.91 282.07V0Z" fill="#BCBCBC"/>
<path d="M217.828 0H218.458V282.02L217.828 282.07V0Z" fill="#BCBCBC"/>
<path d="M215.762 0H216.392V282.02L215.762 282.07V0Z" fill="#BCBCBC"/>
<path d="M213.68 0H214.31V282.02L213.68 282.07V0Z" fill="#BCBCBC"/>
<path d="M211.609 0H212.239V282.02L211.609 282.07V0Z" fill="#BCBCBC"/>
<path d="M209.531 0H210.161V282.02L209.531 282.07V0Z" fill="#BCBCBC"/>
<path d="M207.461 0H208.091V282.02L207.461 282.07V0Z" fill="#BCBCBC"/>
<path d="M205.379 0H206.009V282.02L205.379 282.07V0Z" fill="#BCBCBC"/>
<path d="M203.309 0H203.939V282.02L203.309 282.07V0Z" fill="#BCBCBC"/>
<path d="M201.238 0H201.868V282.02L201.238 282.07V0Z" fill="#BCBCBC"/>
<path d="M199.16 0H199.79V282.02L199.16 282.07V0Z" fill="#BCBCBC"/>
<path d="M197.09 0H197.72V282.02L197.09 282.07V0Z" fill="#BCBCBC"/>
<path d="M195.012 0H195.642V282.02L195.012 282.07V0Z" fill="#BCBCBC"/>
<path d="M192.941 0H193.571V282.02L192.941 282.07V0Z" fill="#BCBCBC"/>
<path d="M190.859 0H191.489V282.02L190.859 282.07V0Z" fill="#BCBCBC"/>
<path d="M188.789 0H189.419V282.02L188.789 282.07V0Z" fill="#BCBCBC"/>
<path d="M186.711 0H187.341V282.02L186.711 282.07V0Z" fill="#BCBCBC"/>
<path d="M317.41 0H318.04V282.02L317.41 282.07V0Z" fill="#BCBCBC"/>
<path d="M315.34 0H315.97V282.02L315.34 282.07V0Z" fill="#BCBCBC"/>
<path d="M313.262 0H313.892V282.02L313.262 282.07V0Z" fill="#BCBCBC"/>
<path d="M311.191 0H311.821V282.02L311.191 282.07V0Z" fill="#BCBCBC"/>
<path d="M309.109 0H309.739V282.02L309.109 282.07V0Z" fill="#BCBCBC"/>
<path d="M307.039 0H307.669V282.02L307.039 282.07V0Z" fill="#BCBCBC"/>
<path d="M304.961 0H305.591V282.02L304.961 282.07V0Z" fill="#BCBCBC"/>
<path d="M302.891 0H303.521V282.02L302.891 282.07V0Z" fill="#BCBCBC"/>
<path d="M300.82 0H301.45V282.02L300.82 282.07V0Z" fill="#BCBCBC"/>
<path d="M298.738 0H299.368V282.02L298.738 282.07V0Z" fill="#BCBCBC"/>
<path d="M296.672 0H297.302V282.02L296.672 282.07V0Z" fill="#BCBCBC"/>
<path d="M294.59 0H295.22V282.02L294.59 282.07V0Z" fill="#BCBCBC"/>
<path d="M292.52 0H293.15V282.02L292.52 282.07V0Z" fill="#BCBCBC"/>
<path d="M290.441 0H291.071V282.02L290.441 282.07V0Z" fill="#BCBCBC"/>
<path d="M288.371 0H289.001V282.02L288.371 282.07V0Z" fill="#BCBCBC"/>
<path d="M286.289 0H286.919V282.02L286.289 282.07V0Z" fill="#BCBCBC"/>
<path d="M284.219 0H284.849V282.02L284.219 282.07V0Z" fill="#BCBCBC"/>
<path d="M282.141 0H282.771V282.02L282.141 282.07V0Z" fill="#BCBCBC"/>
<path d="M280.07 0H280.7V282.02L280.07 282.07V0Z" fill="#BCBCBC"/>
<path d="M277.988 0H278.618V282.02L277.988 282.07V0Z" fill="#BCBCBC"/>
<path d="M275.922 0H276.552V282.02L275.922 282.07V0Z" fill="#BCBCBC"/>
<path d="M273.852 0H274.482V282.02L273.852 282.07V0Z" fill="#BCBCBC"/>
<path d="M271.77 0H272.4V282.02L271.77 282.07V0Z" fill="#BCBCBC"/>
<path d="M269.699 0H270.329V282.02L269.699 282.07V0Z" fill="#BCBCBC"/>
<path d="M267.621 0H268.251V282.02L267.621 282.07V0Z" fill="#BCBCBC"/>
<path d="M265.551 0H266.181V282.02L265.551 282.07V0Z" fill="#BCBCBC"/>
<path d="M263.469 0H264.099V282.02L263.469 282.07V0Z" fill="#BCBCBC"/>
<path d="M261.398 0H262.028V282.02L261.398 282.07V0Z" fill="#BCBCBC"/>
<path d="M259.32 0H259.95V282.02L259.32 282.07V0Z" fill="#BCBCBC"/>
<path d="M257.25 0H257.88V282.02L257.25 282.07V0Z" fill="#BCBCBC"/>
<path d="M255.172 0H255.802V282.02L255.172 282.07V0Z" fill="#BCBCBC"/>
<path d="M253.102 0H253.732V282.02L253.102 282.07V0Z" fill="#BCBCBC"/>
<path d="M329.859 0H330.489V282.02L329.859 282.07V0Z" fill="#BCBCBC"/>
<path d="M327.781 0H328.411V282.02L327.781 282.07V0Z" fill="#BCBCBC"/>
<path d="M325.711 0H326.341V282.02L325.711 282.07V0Z" fill="#BCBCBC"/>
<path d="M323.641 0H324.271V282.02L323.641 282.07V0Z" fill="#BCBCBC"/>
<path d="M321.559 0H322.189V282.02L321.559 282.07V0Z" fill="#BCBCBC"/>
<path d="M319.488 0H320.118V282.02L319.488 282.07V0Z" fill="#BCBCBC"/>
</svg>
