<svg width="23" height="23" viewBox="0 0 23 23" fill="none" xmlns="http://www.w3.org/2000/svg">
<g clip-path="url(#clip0_269_5898)">
<path d="M17.4089 22.81H5.71891C2.77891 22.81 0.378906 20.41 0.378906 17.47V5.34C0.378906 2.4 2.77891 0 5.71891 0H17.4089C20.3489 0 22.7489 2.4 22.7489 5.34V17.47C22.7489 20.41 20.3489 22.81 17.4089 22.81ZM5.71891 0.84C3.23891 0.84 1.21891 2.86 1.21891 5.34V17.47C1.21891 19.95 3.23891 21.97 5.71891 21.97H17.4089C19.8889 21.97 21.9089 19.95 21.9089 17.47V5.34C21.9089 2.86 19.8889 0.84 17.4089 0.84H5.71891Z" fill="#6D6862"/>
<path d="M9.6507 14.3391C9.6507 13.1491 9.6507 11.9691 9.6507 10.7791C9.6507 10.0391 9.6207 9.30906 9.5807 8.56906C9.5707 8.35906 9.5807 8.35906 9.7807 8.35906C10.5507 8.35906 11.3107 8.35906 12.0807 8.35906C12.2507 8.35906 12.2607 8.36906 12.2807 8.53906C12.3107 8.88906 12.3507 9.22906 12.3907 9.57906C12.3907 9.60906 12.3907 9.65906 12.4207 9.66906C12.4607 9.68906 12.4807 9.63906 12.5007 9.61906C13.1407 8.76906 13.9907 8.28906 15.0407 8.16906C16.1107 8.05906 17.1107 8.27906 17.9007 9.06906C18.3707 9.52906 18.6407 10.0991 18.8107 10.7291C18.9607 11.2791 19.0107 11.8391 19.0107 12.3991C19.0107 14.2691 19.0107 16.1391 19.0107 18.0091C19.0107 18.1991 19.0107 18.1991 18.8307 18.1991C17.9207 18.1991 17.0107 18.1991 16.1107 18.1991C15.9407 18.1991 15.9307 18.1991 15.9307 18.0191C15.9307 16.2791 15.9307 14.5491 15.9307 12.8091C15.9307 12.4091 15.9007 12.0191 15.7707 11.6391C15.4307 10.6491 14.2607 10.3091 13.4407 10.9591C12.9607 11.3391 12.7507 11.8591 12.7507 12.4591C12.7507 14.2891 12.7507 16.1191 12.7507 17.9491C12.7507 18.2291 12.7607 18.1991 12.5007 18.1991C11.6107 18.1991 10.7307 18.1991 9.8407 18.1991C9.6707 18.1991 9.6707 18.1991 9.6707 18.0291C9.6707 16.7991 9.6707 15.5691 9.6707 14.3291L9.6507 14.3391Z" fill="#6D6862"/>
<path d="M4.16016 13.2891C4.16016 11.7191 4.16016 10.1491 4.16016 8.57914C4.16016 8.43914 4.23349 8.36914 4.38016 8.36914C5.27016 8.36914 6.16016 8.36914 7.05016 8.36914C7.24016 8.36914 7.24016 8.36914 7.24016 8.54914C7.24016 11.7091 7.24016 14.8691 7.24016 18.0291C7.24016 18.2091 7.24016 18.2091 7.07016 18.2091C6.16016 18.2091 5.25016 18.2091 4.33016 18.2091C4.16016 18.2091 4.16016 18.2091 4.16016 18.0391C4.16016 16.4591 4.16016 14.8791 4.16016 13.2891Z" fill="#6D6862"/>
<path d="M4.08031 5.64992C4.08031 4.77992 4.70031 4.13992 5.60031 4.09992C6.08031 4.07992 6.52031 4.18992 6.87031 4.52992C7.31031 4.96992 7.44031 5.49992 7.28031 6.08992C7.12031 6.66992 6.71031 6.99992 6.13031 7.13992C5.66031 7.24992 5.21031 7.19992 4.78031 6.95992C4.32031 6.68992 4.07031 6.22992 4.07031 5.63992L4.08031 5.64992Z" fill="#6D6862"/>
</g>
<defs>
<clipPath id="clip0_269_5898">
<rect width="22.38" height="22.81" fill="white" transform="translate(0.378906)"/>
</clipPath>
</defs>
</svg>
