<svg width="85" height="23" viewBox="0 0 85 23" fill="none" xmlns="http://www.w3.org/2000/svg">
<g clip-path="url(#clip0_305_71)">
<path d="M79.3997 0.588902H78.543V0.0371094H80.8342V0.588902H79.9855V2.81217H79.3997V0.588902ZM81.3001 0.0371094H82.0469L82.8276 2.1155L83.6084 0.0371094H84.3551V2.81128H83.7953V1.01281L83.1254 2.81128H82.5227L81.8609 1.01281V2.81128H81.301V0.0371094H81.3001Z" fill="#F2F2F2"/>
<path d="M73.3714 0.0371094V22.9638H70.2252L69.9802 22.6025L68.3275 20.1628L66.3296 17.2142L62.4599 11.5004L58.5392 5.71422L58.4802 5.62569V22.9638H55.0898V8.48571L56.2015 5.71422L57.0707 3.54461L58.4408 0.125647L58.4802 0.184671L62.2256 5.71422L66.1454 11.5004L69.9802 17.1606V17.2142H70.016L69.9802 17.1606V0.0371094H73.3714Z" fill="#F2F2F2"/>
<path d="M42.7827 20.0501L42.772 20.0474L41.6371 17.2142L39.8324 12.714L39.3459 11.5004L37.0251 5.71422L34.75 0.0371094H38.2056L40.3779 5.71422L41.4824 8.60018L42.5905 11.5004L44.4766 16.429L46.3618 11.5004L48.5752 5.71422L50.7466 0.0371094H54.2031L51.928 5.71422L49.6073 11.5004L47.316 17.2142L46.1346 20.1628L46.0175 20.4561L45.0114 22.9638H41.8303L42.7827 20.0501Z" fill="#F2F2F2"/>
<path d="M36.4743 17.2142L37.6181 20.0698L37.5814 20.1628L36.4573 22.9638H35.3251L34.2537 20.1628L33.126 17.2142L30.9403 11.5004L28.7277 5.71422L27.9613 3.70827L27.194 5.71422L24.9814 11.5004L22.7966 17.2142L21.668 20.1628L20.5966 22.9638H16.9961L18.1194 20.1628L19.3007 17.2142L21.592 11.5004L23.9127 5.71422L26.187 0.0371094H29.5872L31.8623 5.71422L34.183 11.5004L36.4743 17.2142Z" fill="#F2F2F2"/>
<path d="M14.5825 20.1628L13.4583 22.9638H0.539062V0.0371094H3.93031V20.1628H14.5825Z" fill="#F2F2F2"/>
</g>
<defs>
<clipPath id="clip0_305_71">
<rect width="83.8537" height="23" fill="white" transform="translate(0.5)"/>
</clipPath>
</defs>
</svg>
