<svg width="23" height="23" viewBox="0 0 23 23" fill="none" xmlns="http://www.w3.org/2000/svg">
<g clip-path="url(#clip0_269_5894)">
<path d="M17.04 22.81H5.34C2.4 22.81 0 20.41 0 17.47V5.34C0 2.4 2.4 0 5.34 0H17.03C19.97 0 22.37 2.4 22.37 5.34V17.47C22.37 20.41 19.97 22.81 17.03 22.81H17.04ZM5.34 0.84C2.86 0.84 0.84 2.86 0.84 5.34V17.47C0.84 19.95 2.86 21.97 5.34 21.97H17.03C19.51 21.97 21.53 19.95 21.53 17.47V5.34C21.53 2.86 19.51 0.84 17.03 0.84H5.34Z" fill="#6D6862"/>
<path d="M11.03 17.3901C7.84 17.3901 5.25 14.8001 5.25 11.6101C5.25 8.42008 7.84 5.83008 11.03 5.83008C14.22 5.83008 16.81 8.42008 16.81 11.6101C16.81 14.8001 14.22 17.3901 11.03 17.3901ZM11.03 6.68008C8.31 6.68008 6.1 8.89008 6.1 11.6101C6.1 14.3301 8.31 16.5401 11.03 16.5401C13.75 16.5401 15.97 14.3301 15.97 11.6101C15.97 8.89008 13.76 6.68008 11.03 6.68008Z" fill="#6D6862"/>
<path d="M17.3589 6.34086C18.1763 6.34086 18.8389 5.67824 18.8389 4.86086C18.8389 4.04348 18.1763 3.38086 17.3589 3.38086C16.5415 3.38086 15.8789 4.04348 15.8789 4.86086C15.8789 5.67824 16.5415 6.34086 17.3589 6.34086Z" fill="#6D6862"/>
</g>
<defs>
<clipPath id="clip0_269_5894">
<rect width="22.38" height="22.81" fill="white"/>
</clipPath>
</defs>
</svg>
