<svg width="84" height="60" viewBox="0 0 84 60" fill="none" xmlns="http://www.w3.org/2000/svg">
<mask id="mask0_267_3425" style="mask-type:luminance" maskUnits="userSpaceOnUse" x="0" y="2" width="84" height="57">
<path d="M0 30.21C0 13.43 6.22 2 19.7 2C33.18 2 39.32 13.43 39.32 30.21C39.32 46.99 33.17 58.58 19.7 58.58C6.23 58.58 0 47.15 0 30.21ZM19.7 51.17C28.05 51.17 31.2 42.27 31.2 30.21C31.2 18.15 27.97 9.41 19.7 9.41C11.43 9.41 8.12 18.24 8.12 30.21C8.12 42.18 11.27 51.17 19.7 51.17ZM68.79 47.39H43.65V40.22L59.96 9.57V2.71H68.08V11.06L52.08 40.21H68.78V26.5H76.66V40.21H83.67V47.38H76.66V57.86H68.78V47.38L68.79 47.39Z" fill="white"/>
</mask>
<g mask="url(#mask0_267_3425)">
<path d="M65.1719 -111.57H65.8119V177.75L65.1719 177.8V-111.57Z" fill="#BCBCBC"/>
<path d="M63.0391 -111.57H63.6791V177.75L63.0391 177.8V-111.57Z" fill="#BCBCBC"/>
<path d="M60.9102 -111.57H61.5502V177.75L60.9102 177.8V-111.57Z" fill="#BCBCBC"/>
<path d="M58.7891 -111.57H59.4291V177.75L58.7891 177.8V-111.57Z" fill="#BCBCBC"/>
<path d="M56.6602 -111.57H57.3002V177.75L56.6602 177.8V-111.57Z" fill="#BCBCBC"/>
<path d="M54.5312 -111.57H55.1712V177.75L54.5312 177.8V-111.57Z" fill="#BCBCBC"/>
<path d="M52.3984 -111.57H53.0384V177.75L52.3984 177.8V-111.57Z" fill="#BCBCBC"/>
<path d="M50.2695 -111.57H50.9095V177.75L50.2695 177.8V-111.57Z" fill="#BCBCBC"/>
<path d="M48.1406 -111.57H48.7806V177.75L48.1406 177.8V-111.57Z" fill="#BCBCBC"/>
<path d="M46.0195 -111.57H46.6595V177.75L46.0195 177.8V-111.57Z" fill="#BCBCBC"/>
<path d="M43.8906 -111.57H44.5306V177.75L43.8906 177.8V-111.57Z" fill="#BCBCBC"/>
<path d="M41.7617 -111.57H42.4017V177.75L41.7617 177.8V-111.57Z" fill="#BCBCBC"/>
<path d="M39.6289 -111.57H40.2689V177.75L39.6289 177.8V-111.57Z" fill="#BCBCBC"/>
<path d="M37.5 -111.57H38.14V177.75L37.5 177.8V-111.57Z" fill="#BCBCBC"/>
<path d="M35.3711 -111.57H36.0111V177.75L35.3711 177.8V-111.57Z" fill="#BCBCBC"/>
<path d="M33.25 -111.57H33.89V177.75L33.25 177.8V-111.57Z" fill="#BCBCBC"/>
<path d="M31.1211 -111.57H31.7611V177.75L31.1211 177.8V-111.57Z" fill="#BCBCBC"/>
<path d="M28.9883 -111.57H29.6283V177.75L28.9883 177.8V-111.57Z" fill="#BCBCBC"/>
<path d="M26.8594 -111.57H27.4994V177.75L26.8594 177.8V-111.57Z" fill="#BCBCBC"/>
<path d="M24.7305 -111.57H25.3705V177.75L24.7305 177.8V-111.57Z" fill="#BCBCBC"/>
<path d="M22.6016 -111.57H23.2416V177.75L22.6016 177.8V-111.57Z" fill="#BCBCBC"/>
<path d="M20.4805 -111.57H21.1205V177.75L20.4805 177.8V-111.57Z" fill="#BCBCBC"/>
<path d="M18.3516 -111.57H18.9916V177.75L18.3516 177.8V-111.57Z" fill="#BCBCBC"/>
<path d="M16.2188 -111.57H16.8587V177.75L16.2188 177.8V-111.57Z" fill="#BCBCBC"/>
<path d="M14.0898 -111.57H14.7298V177.75L14.0898 177.8V-111.57Z" fill="#BCBCBC"/>
<path d="M11.9609 -111.57H12.6009V177.75L11.9609 177.8V-111.57Z" fill="#BCBCBC"/>
<path d="M9.82812 -111.57H10.4681V177.75L9.82812 177.8V-111.57Z" fill="#BCBCBC"/>
<path d="M7.71094 -111.57H8.35094V177.75L7.71094 177.8V-111.57Z" fill="#BCBCBC"/>
<path d="M5.57812 -111.57H6.21812V177.75L5.57812 177.8V-111.57Z" fill="#BCBCBC"/>
<path d="M3.44922 -111.57H4.08922V177.75L3.44922 177.8V-111.57Z" fill="#BCBCBC"/>
<path d="M1.32031 -111.57H1.96031V177.75L1.32031 177.8V-111.57Z" fill="#BCBCBC"/>
<path d="M82.1992 -111.57H82.8392V177.75L82.1992 177.8V-111.57Z" fill="#BCBCBC"/>
<path d="M80.0703 -111.57H80.7103V177.75L80.0703 177.8V-111.57Z" fill="#BCBCBC"/>
<path d="M77.9414 -111.57H78.5814V177.75L77.9414 177.8V-111.57Z" fill="#BCBCBC"/>
<path d="M75.8086 -111.57H76.4486V177.75L75.8086 177.8V-111.57Z" fill="#BCBCBC"/>
<path d="M73.6797 -111.57H74.3197V177.75L73.6797 177.8V-111.57Z" fill="#BCBCBC"/>
<path d="M71.5586 -111.57H72.1986V177.75L71.5586 177.8V-111.57Z" fill="#BCBCBC"/>
<path d="M69.4297 -111.57H70.0697V177.75L69.4297 177.8V-111.57Z" fill="#BCBCBC"/>
<path d="M67.3008 -111.57H67.9408V177.75L67.3008 177.8V-111.57Z" fill="#BCBCBC"/>
</g>
</svg>
