<svg width="79" height="60" viewBox="0 0 79 60" fill="none" xmlns="http://www.w3.org/2000/svg">
<mask id="mask0_267_2432" style="mask-type:luminance" maskUnits="userSpaceOnUse" x="0" y="3" width="79" height="55">
<path d="M0 30.06C0 13.96 5.97001 3 18.9 3C31.83 3 37.72 13.96 37.72 30.06C37.72 46.16 31.82 57.27 18.9 57.27C5.98001 57.27 0 46.31 0 30.06ZM18.9 50.17C26.91 50.17 29.94 41.63 29.94 30.06C29.94 18.49 26.84 10.1 18.9 10.1C10.96 10.1 7.79 18.57 7.79 30.06C7.79 41.55 10.81 50.17 18.9 50.17ZM44.37 49.49L62.74 31.42C67.8 26.36 69.62 23.56 69.62 19.4C69.62 14.71 66.37 10.03 60.1 10.03C53.83 10.03 50.42 14.57 49.9 19.71L43.4 16.54C44.53 10.04 49.67 3.01 60.11 3.01C70.55 3.01 77.5 10.8 77.5 19.41C77.5 25.23 75.38 29.46 68.28 36.27L54.52 49.5H78.26V56.61H44.4V49.5L44.37 49.49Z" fill="white"/>
</mask>
<g mask="url(#mask0_267_2432)">
<path d="M62.5117 -105.95H63.1317V171.6L62.5117 171.65V-105.95Z" fill="#BCBCBC"/>
<path d="M60.4727 -105.95H61.0927V171.6L60.4727 171.65V-105.95Z" fill="#BCBCBC"/>
<path d="M58.4297 -105.95H59.0497V171.6L58.4297 171.65V-105.95Z" fill="#BCBCBC"/>
<path d="M56.3906 -105.95H57.0106V171.6L56.3906 171.65V-105.95Z" fill="#BCBCBC"/>
<path d="M54.3516 -105.95H54.9716V171.6L54.3516 171.65V-105.95Z" fill="#BCBCBC"/>
<path d="M52.3008 -105.95H52.9208V171.6L52.3008 171.65V-105.95Z" fill="#BCBCBC"/>
<path d="M50.2617 -105.95H50.8817V171.6L50.2617 171.65V-105.95Z" fill="#BCBCBC"/>
<path d="M48.2227 -105.95H48.8427V171.6L48.2227 171.65V-105.95Z" fill="#BCBCBC"/>
<path d="M46.1797 -105.95H46.7997V171.6L46.1797 171.65V-105.95Z" fill="#BCBCBC"/>
<path d="M44.1406 -105.95H44.7606V171.6L44.1406 171.65V-105.95Z" fill="#BCBCBC"/>
<path d="M42.1016 -105.95H42.7216V171.6L42.1016 171.65V-105.95Z" fill="#BCBCBC"/>
<path d="M40.0508 -105.95H40.6708V171.6L40.0508 171.65V-105.95Z" fill="#BCBCBC"/>
<path d="M38.0117 -105.95H38.6317V171.6L38.0117 171.65V-105.95Z" fill="#BCBCBC"/>
<path d="M35.9727 -105.95H36.5927V171.6L35.9727 171.65V-105.95Z" fill="#BCBCBC"/>
<path d="M33.9297 -105.95H34.5497V171.6L33.9297 171.65V-105.95Z" fill="#BCBCBC"/>
<path d="M31.8906 -105.95H32.5106V171.6L31.8906 171.65V-105.95Z" fill="#BCBCBC"/>
<path d="M29.8516 -105.95H30.4716V171.6L29.8516 171.65V-105.95Z" fill="#BCBCBC"/>
<path d="M27.8008 -105.95H28.4208V171.6L27.8008 171.65V-105.95Z" fill="#BCBCBC"/>
<path d="M25.7617 -105.95H26.3817V171.6L25.7617 171.65V-105.95Z" fill="#BCBCBC"/>
<path d="M23.7227 -105.95H24.3427V171.6L23.7227 171.65V-105.95Z" fill="#BCBCBC"/>
<path d="M21.6797 -105.95H22.2997V171.6L21.6797 171.65V-105.95Z" fill="#BCBCBC"/>
<path d="M19.6406 -105.95H20.2606V171.6L19.6406 171.65V-105.95Z" fill="#BCBCBC"/>
<path d="M17.6016 -105.95H18.2216V171.6L17.6016 171.65V-105.95Z" fill="#BCBCBC"/>
<path d="M15.5508 -105.95H16.1708V171.6L15.5508 171.65V-105.95Z" fill="#BCBCBC"/>
<path d="M13.5117 -105.95H14.1317V171.6L13.5117 171.65V-105.95Z" fill="#BCBCBC"/>
<path d="M11.4727 -105.95H12.0927V171.6L11.4727 171.65V-105.95Z" fill="#BCBCBC"/>
<path d="M9.42969 -105.95H10.0497V171.6L9.42969 171.65V-105.95Z" fill="#BCBCBC"/>
<path d="M7.39062 -105.95H8.01063V171.6L7.39062 171.65V-105.95Z" fill="#BCBCBC"/>
<path d="M5.35156 -105.95H5.97156V171.6L5.35156 171.65V-105.95Z" fill="#BCBCBC"/>
<path d="M3.30078 -105.95H3.92078V171.6L3.30078 171.65V-105.95Z" fill="#BCBCBC"/>
<path d="M1.26172 -105.95H1.88172V171.6L1.26172 171.65V-105.95Z" fill="#BCBCBC"/>
<path d="M76.8125 -105.95H77.4325V171.6L76.8125 171.65V-105.95Z" fill="#BCBCBC"/>
<path d="M74.7617 -105.95H75.3817V171.6L74.7617 171.65V-105.95Z" fill="#BCBCBC"/>
<path d="M72.7227 -105.95H73.3427V171.6L72.7227 171.65V-105.95Z" fill="#BCBCBC"/>
<path d="M70.6797 -105.95H71.2997V171.6L70.6797 171.65V-105.95Z" fill="#BCBCBC"/>
<path d="M68.6406 -105.95H69.2606V171.6L68.6406 171.65V-105.95Z" fill="#BCBCBC"/>
<path d="M66.6016 -105.95H67.2216V171.6L66.6016 171.65V-105.95Z" fill="#BCBCBC"/>
<path d="M64.5625 -105.95H65.1825V171.6L64.5625 171.65V-105.95Z" fill="#BCBCBC"/>
</g>
</svg>
