<svg width="78" height="60" viewBox="0 0 78 60" fill="none" xmlns="http://www.w3.org/2000/svg">
<mask id="mask0_267_2597" style="mask-type:luminance" maskUnits="userSpaceOnUse" x="0" y="3" width="78" height="54">
<path d="M0 29.51C0 13.73 5.85 3 18.52 3C31.19 3 36.96 13.74 36.96 29.51C36.96 45.28 31.18 56.17 18.52 56.17C5.86 56.17 0 45.43 0 29.51ZM18.52 49.21C26.37 49.21 29.33 40.84 29.33 29.51C29.33 18.18 26.29 9.96 18.52 9.96C10.75 9.96 7.63 18.25 7.63 29.51C7.63 40.77 10.59 49.21 18.52 49.21ZM70.29 40.62C70.29 35.51 66.59 31.81 60.14 31.81H56.14V25.22H60.14C65.4 25.22 68.66 22.11 68.66 17.37C68.66 13.89 65.77 9.89 59.85 9.89C53.55 9.89 50.37 14.11 49.85 19L43.55 16.11C44.66 9.37 49.85 3 59.92 3C69.99 3 76.36 9.44 76.36 17.15C76.36 23.15 73.03 26.48 70.29 27.96C75.18 30.4 77.99 34.7 77.99 40.55C77.99 49.07 71.84 56.18 60.14 56.18C49.7 56.18 43.85 49.22 42.88 43.07L49.18 40.11C49.85 45 53.48 49.29 59.99 49.29C66.95 49.29 70.28 45.59 70.28 40.62H70.29Z" fill="white"/>
</mask>
<g mask="url(#mask0_267_2597)">
<path d="M61.25 -103.75H61.86V168.19L61.25 168.24V-103.75Z" fill="#BCBCBC"/>
<path d="M59.25 -103.75H59.86V168.19L59.25 168.24V-103.75Z" fill="#BCBCBC"/>
<path d="M57.25 -103.75H57.86V168.19L57.25 168.24V-103.75Z" fill="#BCBCBC"/>
<path d="M55.25 -103.75H55.86V168.19L55.25 168.24V-103.75Z" fill="#BCBCBC"/>
<path d="M53.25 -103.75H53.86V168.19L53.25 168.24V-103.75Z" fill="#BCBCBC"/>
<path d="M51.25 -103.75H51.86V168.19L51.25 168.24V-103.75Z" fill="#BCBCBC"/>
<path d="M49.25 -103.75H49.86V168.19L49.25 168.24V-103.75Z" fill="#BCBCBC"/>
<path d="M47.25 -103.75H47.86V168.19L47.25 168.24V-103.75Z" fill="#BCBCBC"/>
<path d="M45.25 -103.75H45.86V168.19L45.25 168.24V-103.75Z" fill="#BCBCBC"/>
<path d="M43.25 -103.75H43.86V168.19L43.25 168.24V-103.75Z" fill="#BCBCBC"/>
<path d="M41.2422 -103.75H41.8522V168.19L41.2422 168.24V-103.75Z" fill="#BCBCBC"/>
<path d="M39.2422 -103.75H39.8522V168.19L39.2422 168.24V-103.75Z" fill="#BCBCBC"/>
<path d="M37.2422 -103.75H37.8522V168.19L37.2422 168.24V-103.75Z" fill="#BCBCBC"/>
<path d="M35.2422 -103.75H35.8522V168.19L35.2422 168.24V-103.75Z" fill="#BCBCBC"/>
<path d="M33.2422 -103.75H33.8522V168.19L33.2422 168.24V-103.75Z" fill="#BCBCBC"/>
<path d="M31.2422 -103.75H31.8522V168.19L31.2422 168.24V-103.75Z" fill="#BCBCBC"/>
<path d="M29.2422 -103.75H29.8522V168.19L29.2422 168.24V-103.75Z" fill="#BCBCBC"/>
<path d="M27.2422 -103.75H27.8522V168.19L27.2422 168.24V-103.75Z" fill="#BCBCBC"/>
<path d="M25.2422 -103.75H25.8522V168.19L25.2422 168.24V-103.75Z" fill="#BCBCBC"/>
<path d="M23.2422 -103.75H23.8522V168.19L23.2422 168.24V-103.75Z" fill="#BCBCBC"/>
<path d="M21.2422 -103.75H21.8522V168.19L21.2422 168.24V-103.75Z" fill="#BCBCBC"/>
<path d="M19.2422 -103.75H19.8522V168.19L19.2422 168.24V-103.75Z" fill="#BCBCBC"/>
<path d="M17.2422 -103.75H17.8522V168.19L17.2422 168.24V-103.75Z" fill="#BCBCBC"/>
<path d="M15.2422 -103.75H15.8522V168.19L15.2422 168.24V-103.75Z" fill="#BCBCBC"/>
<path d="M13.2422 -103.75H13.8522V168.19L13.2422 168.24V-103.75Z" fill="#BCBCBC"/>
<path d="M11.2422 -103.75H11.8522V168.19L11.2422 168.24V-103.75Z" fill="#BCBCBC"/>
<path d="M9.24219 -103.75H9.85219V168.19L9.24219 168.24V-103.75Z" fill="#BCBCBC"/>
<path d="M7.24219 -103.75H7.85219V168.19L7.24219 168.24V-103.75Z" fill="#BCBCBC"/>
<path d="M5.24219 -103.75H5.85219V168.19L5.24219 168.24V-103.75Z" fill="#BCBCBC"/>
<path d="M3.24219 -103.75H3.85219V168.19L3.24219 168.24V-103.75Z" fill="#BCBCBC"/>
<path d="M1.24219 -103.75H1.85219V168.19L1.24219 168.24V-103.75Z" fill="#BCBCBC"/>
<path d="M77.25 -103.75H77.86V168.19L77.25 168.24V-103.75Z" fill="#BCBCBC"/>
<path d="M75.25 -103.75H75.86V168.19L75.25 168.24V-103.75Z" fill="#BCBCBC"/>
<path d="M73.25 -103.75H73.86V168.19L73.25 168.24V-103.75Z" fill="#BCBCBC"/>
<path d="M71.25 -103.75H71.86V168.19L71.25 168.24V-103.75Z" fill="#BCBCBC"/>
<path d="M69.25 -103.75H69.86V168.19L69.25 168.24V-103.75Z" fill="#BCBCBC"/>
<path d="M67.25 -103.75H67.86V168.19L67.25 168.24V-103.75Z" fill="#BCBCBC"/>
<path d="M65.25 -103.75H65.86V168.19L65.25 168.24V-103.75Z" fill="#BCBCBC"/>
<path d="M63.25 -103.75H63.86V168.19L63.25 168.24V-103.75Z" fill="#BCBCBC"/>
</g>
</svg>
