<svg width="67" height="60" viewBox="0 0 67 60" fill="none" xmlns="http://www.w3.org/2000/svg">
<mask id="mask0_267_1764" style="mask-type:luminance" maskUnits="userSpaceOnUse" x="0" y="2" width="67" height="56">
<path d="M0 29.5C0 13.14 6.07 2 19.2 2C32.33 2 38.32 13.14 38.32 29.5C38.32 45.86 32.33 57.15 19.2 57.15C6.07 57.15 0 46.01 0 29.5ZM19.2 49.93C27.34 49.93 30.41 41.25 30.41 29.5C30.41 17.75 27.26 9.22 19.2 9.22C11.14 9.22 7.91 17.82 7.91 29.5C7.91 41.18 10.98 49.93 19.2 49.93ZM58.45 12.14L49.31 20.2H43.86V11.67H48.08L58.37 2.68H66.2V56.44H58.44V12.12L58.45 12.14Z" fill="white"/>
</mask>
<g mask="url(#mask0_267_1764)">
<path d="M63.5195 -108.7H64.1495V173.32L63.5195 173.37V-108.7Z" fill="#BCBCBC"/>
<path d="M61.4375 -108.7H62.0675V173.32L61.4375 173.37V-108.7Z" fill="#BCBCBC"/>
<path d="M59.3672 -108.7H59.9972V173.32L59.3672 173.37V-108.7Z" fill="#BCBCBC"/>
<path d="M57.2891 -108.7H57.9191V173.32L57.2891 173.37V-108.7Z" fill="#BCBCBC"/>
<path d="M55.2188 -108.7H55.8488V173.32L55.2188 173.37V-108.7Z" fill="#BCBCBC"/>
<path d="M53.1484 -108.7H53.7784V173.32L53.1484 173.37V-108.7Z" fill="#BCBCBC"/>
<path d="M51.0703 -108.7H51.7003V173.32L51.0703 173.37V-108.7Z" fill="#BCBCBC"/>
<path d="M49 -108.7H49.63V173.32L49 173.37V-108.7Z" fill="#BCBCBC"/>
<path d="M46.918 -108.7H47.548V173.32L46.918 173.37V-108.7Z" fill="#BCBCBC"/>
<path d="M44.8477 -108.7H45.4777V173.32L44.8477 173.37V-108.7Z" fill="#BCBCBC"/>
<path d="M42.7695 -108.7H43.3995V173.32L42.7695 173.37V-108.7Z" fill="#BCBCBC"/>
<path d="M40.6992 -108.7H41.3292V173.32L40.6992 173.37V-108.7Z" fill="#BCBCBC"/>
<path d="M38.6172 -108.7H39.2472V173.32L38.6172 173.37V-108.7Z" fill="#BCBCBC"/>
<path d="M36.5508 -108.7H37.1808V173.32L36.5508 173.37V-108.7Z" fill="#BCBCBC"/>
<path d="M34.4688 -108.7H35.0988V173.32L34.4688 173.37V-108.7Z" fill="#BCBCBC"/>
<path d="M32.3984 -108.7H33.0284V173.32L32.3984 173.37V-108.7Z" fill="#BCBCBC"/>
<path d="M30.3203 -108.7H30.9503V173.32L30.3203 173.37V-108.7Z" fill="#BCBCBC"/>
<path d="M28.25 -108.7H28.88V173.32L28.25 173.37V-108.7Z" fill="#BCBCBC"/>
<path d="M26.1797 -108.7H26.8097V173.32L26.1797 173.37V-108.7Z" fill="#BCBCBC"/>
<path d="M24.0977 -108.7H24.7277V173.32L24.0977 173.37V-108.7Z" fill="#BCBCBC"/>
<path d="M22.0273 -108.7H22.6573V173.32L22.0273 173.37V-108.7Z" fill="#BCBCBC"/>
<path d="M19.9492 -108.7H20.5792V173.32L19.9492 173.37V-108.7Z" fill="#BCBCBC"/>
<path d="M17.8789 -108.7H18.5089V173.32L17.8789 173.37V-108.7Z" fill="#BCBCBC"/>
<path d="M15.8008 -108.7H16.4308V173.32L15.8008 173.37V-108.7Z" fill="#BCBCBC"/>
<path d="M13.7305 -108.7H14.3605V173.32L13.7305 173.37V-108.7Z" fill="#BCBCBC"/>
<path d="M11.6484 -108.7H12.2784V173.32L11.6484 173.37V-108.7Z" fill="#BCBCBC"/>
<path d="M9.57812 -108.7H10.2081V173.32L9.57812 173.37V-108.7Z" fill="#BCBCBC"/>
<path d="M7.5 -108.7H8.13V173.32L7.5 173.37V-108.7Z" fill="#BCBCBC"/>
<path d="M5.42969 -108.7H6.05968V173.32L5.42969 173.37V-108.7Z" fill="#BCBCBC"/>
<path d="M3.35938 -108.7H3.98937V173.32L3.35938 173.37V-108.7Z" fill="#BCBCBC"/>
<path d="M1.27734 -108.7H1.90734V173.32L1.27734 173.37V-108.7Z" fill="#BCBCBC"/>
<path d="M65.5898 -108.7H66.2198V173.32L65.5898 173.37V-108.7Z" fill="#BCBCBC"/>
</g>
</svg>
